<svg width="487" height="501" viewBox="0 0 487 501" fill="none" xmlns="http://www.w3.org/2000/svg">
<path opacity="0.2" d="M211.062 45.9059L247.696 245.31L336.34 65.4868C297.521 44.2876 253.245 37.7677 211.062 45.9059Z" fill="white"/>
<path d="M247.53 245.673H487C487 181.853 463.62 118.031 416.861 69.337C398.774 50.5016 378.508 35.326 356.915 23.7754L247.53 245.673Z" fill="#815D4D"/>
<path opacity="0.2" d="M403.749 80.2832C387.355 63.2107 369.039 49.3677 349.525 38.7402L247.697 245.311H468.875C469.184 185.619 447.484 125.826 403.749 80.2832Z" fill="#805D4D"/>
<path d="M202.697 0.369141C157.148 9.39924 113.626 32.2549 78.3665 68.9728C45.3891 103.315 24.057 145.185 14.3369 189.27L247.697 245.309L202.697 0.369141Z" fill="#D9AC8D"/>
<path opacity="0.2" d="M72.4053 425.336C120.785 475.717 184.289 500.733 247.697 500.411V245.31L6.37507 187.36C-11.6049 270.309 10.3963 360.759 72.4053 425.336Z" fill="white"/>
<path opacity="0.2" d="M247.697 449.346C297.75 449.029 347.709 428.997 385.896 389.228C424.086 349.458 443.322 297.434 443.627 245.311H247.697V449.346Z" fill="white"/>
<path opacity="0.53" d="M345.605 327.829C363.437 304.971 374.132 275.829 374.132 244.051C374.132 222.349 369.119 201.89 360.28 183.803L365.859 173.74H354.83C336.548 143.232 306.733 121.02 271.695 113.724L267.457 102.954L260.762 111.972C256.074 111.43 251.317 111.125 246.489 111.125C216.18 111.125 188.374 122.119 166.492 140.461L157.1 136.934L158.898 147.368C134.244 171.596 118.845 205.922 118.845 244.051C118.845 266.661 124.268 287.935 133.81 306.565L126.621 319.593L141.425 319.561C164.446 354.252 202.887 376.975 246.489 376.975C282.628 376.975 315.207 361.352 338.419 336.261L349.113 338.425L345.605 327.829Z" fill="white"/>
<path opacity="0.42" d="M246.487 369.999C313.283 369.999 367.431 313.61 367.431 244.051C367.431 174.492 313.283 118.104 246.487 118.104C179.692 118.104 125.544 174.492 125.544 244.051C125.544 313.61 179.692 369.999 246.487 369.999Z" fill="white"/>
<path d="M245.456 363.469C308.482 363.469 359.575 310.262 359.575 244.629C359.575 178.995 308.482 125.788 245.456 125.788C182.43 125.788 131.337 178.995 131.337 244.629C131.337 310.262 182.43 363.469 245.456 363.469Z" fill="#DAAF95"/>
<path d="M107.471 107.541C107.942 107.346 108.429 107.127 108.932 106.884C109.452 106.624 109.955 106.348 110.442 106.056C110.929 105.747 111.392 105.431 111.83 105.106C112.285 104.765 112.691 104.408 113.048 104.034H115.58V120.911H111.952V108.759C111.465 109.084 110.921 109.384 110.32 109.66C109.719 109.92 109.135 110.147 108.567 110.342L107.471 107.541ZM126.28 112.972C125.923 112.972 125.542 113.004 125.136 113.069C124.73 113.134 124.413 113.224 124.186 113.337C124.186 113.402 124.178 113.5 124.162 113.63C124.162 113.759 124.162 113.873 124.162 113.97C124.162 114.555 124.202 115.107 124.283 115.626C124.364 116.146 124.502 116.601 124.697 116.99C124.892 117.38 125.152 117.688 125.477 117.916C125.801 118.127 126.207 118.232 126.694 118.232C127.1 118.232 127.441 118.151 127.717 117.989C128.009 117.81 128.245 117.591 128.423 117.331C128.618 117.071 128.756 116.787 128.837 116.479C128.935 116.154 128.983 115.846 128.983 115.553C128.983 114.725 128.772 114.092 128.35 113.654C127.944 113.199 127.254 112.972 126.28 112.972ZM126.743 110.147C127.798 110.147 128.691 110.293 129.422 110.585C130.169 110.861 130.777 111.243 131.248 111.73C131.719 112.217 132.06 112.785 132.271 113.435C132.482 114.084 132.588 114.774 132.588 115.505C132.588 116.154 132.466 116.82 132.222 117.502C131.995 118.184 131.638 118.801 131.151 119.353C130.68 119.905 130.071 120.359 129.324 120.716C128.594 121.073 127.725 121.252 126.719 121.252C124.689 121.252 123.147 120.611 122.092 119.328C121.036 118.046 120.509 116.276 120.509 114.019C120.509 112.396 120.76 110.959 121.263 109.709C121.767 108.459 122.481 107.411 123.407 106.567C124.348 105.707 125.477 105.057 126.792 104.619C128.123 104.164 129.617 103.929 131.273 103.913C131.305 104.416 131.338 104.911 131.37 105.398C131.403 105.869 131.435 106.364 131.467 106.884C130.639 106.9 129.86 106.981 129.13 107.127C128.415 107.257 127.758 107.468 127.157 107.76C126.572 108.053 126.061 108.434 125.623 108.905C125.184 109.36 124.843 109.92 124.6 110.585C124.957 110.423 125.322 110.309 125.696 110.244C126.069 110.179 126.418 110.147 126.743 110.147ZM142.922 108.369C142.922 109.895 142.533 111.064 141.753 111.876C140.974 112.688 139.927 113.094 138.612 113.094C137.297 113.094 136.249 112.688 135.47 111.876C134.691 111.064 134.301 109.895 134.301 108.369C134.301 106.843 134.691 105.674 135.47 104.862C136.249 104.051 137.297 103.645 138.612 103.645C139.927 103.645 140.974 104.051 141.753 104.862C142.533 105.674 142.922 106.843 142.922 108.369ZM140.17 108.369C140.17 107.541 140.024 106.941 139.732 106.567C139.44 106.194 139.066 106.007 138.612 106.007C138.141 106.007 137.759 106.194 137.467 106.567C137.191 106.941 137.053 107.541 137.053 108.369C137.053 109.197 137.191 109.806 137.467 110.196C137.759 110.569 138.141 110.756 138.612 110.756C139.066 110.756 139.44 110.569 139.732 110.196C140.024 109.806 140.17 109.197 140.17 108.369ZM147.671 104.034H151.056L141.534 120.911H138.149L147.671 104.034ZM154.953 116.576C154.953 118.102 154.563 119.271 153.784 120.083C153.004 120.895 151.957 121.301 150.642 121.301C149.327 121.301 148.28 120.895 147.501 120.083C146.721 119.271 146.332 118.102 146.332 116.576C146.332 115.05 146.721 113.881 147.501 113.069C148.28 112.258 149.327 111.852 150.642 111.852C151.957 111.852 153.004 112.258 153.784 113.069C154.563 113.881 154.953 115.05 154.953 116.576ZM152.201 116.576C152.201 115.748 152.055 115.148 151.762 114.774C151.47 114.401 151.097 114.214 150.642 114.214C150.171 114.214 149.79 114.401 149.498 114.774C149.222 115.148 149.084 115.748 149.084 116.576C149.084 117.404 149.222 118.013 149.498 118.403C149.79 118.776 150.171 118.963 150.642 118.963C151.097 118.963 151.47 118.776 151.762 118.403C152.055 118.013 152.201 117.404 152.201 116.576Z" fill="white"/>
<path d="M241.413 71.0119C241.884 70.8171 242.371 70.5979 242.874 70.3544C243.394 70.0946 243.897 69.8186 244.384 69.5264C244.871 69.2179 245.334 68.9013 245.772 68.5766C246.227 68.2357 246.633 67.8785 246.99 67.5051H249.523V84.3818H245.894V72.2296C245.407 72.5543 244.863 72.8547 244.263 73.1307C243.662 73.3904 243.077 73.6177 242.509 73.8125L241.413 71.0119ZM259.102 84.7471C258.664 84.7471 258.201 84.7147 257.714 84.6497C257.227 84.601 256.756 84.528 256.302 84.4305C255.847 84.3331 255.433 84.2276 255.06 84.114C254.686 84.0003 254.394 83.8948 254.183 83.7974L254.889 80.7776C255.311 80.9562 255.847 81.151 256.497 81.362C257.162 81.5569 257.982 81.6543 258.956 81.6543C260.077 81.6543 260.896 81.4432 261.416 81.0211C261.935 80.599 262.195 80.0307 262.195 79.3164C262.195 78.878 262.098 78.5127 261.903 78.2205C261.724 77.912 261.473 77.6685 261.148 77.4899C260.823 77.2951 260.434 77.1652 259.979 77.1002C259.541 77.0191 259.07 76.9785 258.567 76.9785H257.154V74.0561H258.761C259.119 74.0561 259.46 74.0236 259.784 73.9587C260.125 73.8937 260.426 73.7882 260.685 73.6421C260.945 73.4797 261.148 73.2687 261.294 73.0089C261.457 72.7329 261.538 72.3919 261.538 71.9861C261.538 71.6776 261.473 71.4097 261.343 71.1824C261.213 70.9551 261.043 70.7684 260.831 70.6223C260.637 70.4762 260.401 70.3706 260.125 70.3057C259.865 70.2245 259.598 70.1839 259.322 70.1839C258.623 70.1839 257.974 70.2895 257.373 70.5005C256.789 70.7116 256.253 70.9713 255.766 71.2798L254.475 68.6253C254.735 68.463 255.035 68.2925 255.376 68.1139C255.734 67.9353 256.123 67.773 256.545 67.6268C256.967 67.4807 257.414 67.359 257.885 67.2615C258.372 67.1641 258.883 67.1154 259.419 67.1154C260.409 67.1154 261.262 67.2372 261.976 67.4807C262.707 67.708 263.307 68.0408 263.778 68.4792C264.249 68.9013 264.598 69.4046 264.825 69.9891C265.053 70.5573 265.166 71.1824 265.166 71.8643C265.166 72.5299 264.98 73.1794 264.606 73.8125C264.233 74.4295 263.73 74.9003 263.096 75.225C263.973 75.5822 264.647 76.118 265.118 76.8323C265.605 77.5305 265.848 78.3747 265.848 79.3651C265.848 80.1444 265.718 80.8669 265.459 81.5325C265.199 82.1819 264.793 82.7502 264.241 83.2372C263.689 83.7081 262.983 84.0815 262.122 84.3575C261.278 84.6173 260.271 84.7471 259.102 84.7471ZM276.865 71.8399C276.865 73.3661 276.475 74.535 275.696 75.3468C274.916 76.1586 273.869 76.5645 272.554 76.5645C271.239 76.5645 270.192 76.1586 269.413 75.3468C268.633 74.535 268.244 73.3661 268.244 71.8399C268.244 70.3138 268.633 69.1449 269.413 68.3331C270.192 67.5213 271.239 67.1154 272.554 67.1154C273.869 67.1154 274.916 67.5213 275.696 68.3331C276.475 69.1449 276.865 70.3138 276.865 71.8399ZM274.113 71.8399C274.113 71.0119 273.967 70.4112 273.674 70.0378C273.382 69.6644 273.009 69.4777 272.554 69.4777C272.083 69.4777 271.702 69.6644 271.41 70.0378C271.134 70.4112 270.996 71.0119 270.996 71.8399C270.996 72.6679 271.134 73.2768 271.41 73.6664C271.702 74.0398 272.083 74.2266 272.554 74.2266C273.009 74.2266 273.382 74.0398 273.674 73.6664C273.967 73.2768 274.113 72.6679 274.113 71.8399ZM281.613 67.5051H284.999L275.476 84.3818H272.091L281.613 67.5051ZM288.895 80.047C288.895 81.5731 288.505 82.7421 287.726 83.5538C286.947 84.3656 285.9 84.7715 284.585 84.7715C283.27 84.7715 282.222 84.3656 281.443 83.5538C280.664 82.7421 280.274 81.5731 280.274 80.047C280.274 78.5208 280.664 77.3519 281.443 76.5401C282.222 75.7283 283.27 75.3224 284.585 75.3224C285.9 75.3224 286.947 75.7283 287.726 76.5401C288.505 77.3519 288.895 78.5208 288.895 80.047ZM286.143 80.047C286.143 79.219 285.997 78.6182 285.705 78.2448C285.413 77.8714 285.039 77.6847 284.585 77.6847C284.114 77.6847 283.732 77.8714 283.44 78.2448C283.164 78.6182 283.026 79.219 283.026 80.047C283.026 80.875 283.164 81.4838 283.44 81.8735C283.732 82.2469 284.114 82.4336 284.585 82.4336C285.039 82.4336 285.413 82.2469 285.705 81.8735C285.997 81.4838 286.143 80.875 286.143 80.047Z" fill="white"/>
<path d="M369.268 148.942C369.739 148.747 370.226 148.528 370.729 148.284C371.248 148.024 371.752 147.748 372.239 147.456C372.726 147.148 373.189 146.831 373.627 146.506C374.082 146.165 374.487 145.808 374.845 145.435H377.377V162.312H373.749V150.159C373.262 150.484 372.718 150.784 372.117 151.06C371.516 151.32 370.932 151.547 370.364 151.742L369.268 148.942ZM388.077 154.372C387.72 154.372 387.338 154.405 386.933 154.47C386.527 154.535 386.21 154.624 385.983 154.738C385.983 154.803 385.975 154.9 385.958 155.03C385.958 155.16 385.958 155.273 385.958 155.371C385.958 155.955 385.999 156.507 386.08 157.027C386.161 157.546 386.299 158.001 386.494 158.391C386.689 158.78 386.949 159.089 387.273 159.316C387.598 159.527 388.004 159.633 388.491 159.633C388.897 159.633 389.238 159.551 389.514 159.389C389.806 159.211 390.042 158.991 390.22 158.732C390.415 158.472 390.553 158.188 390.634 157.879C390.732 157.555 390.78 157.246 390.78 156.954C390.78 156.126 390.569 155.493 390.147 155.054C389.741 154.6 389.051 154.372 388.077 154.372ZM388.54 151.547C389.595 151.547 390.488 151.694 391.219 151.986C391.966 152.262 392.574 152.643 393.045 153.13C393.516 153.617 393.857 154.186 394.068 154.835C394.279 155.485 394.385 156.175 394.385 156.905C394.385 157.555 394.263 158.22 394.019 158.902C393.792 159.584 393.435 160.201 392.948 160.753C392.477 161.305 391.868 161.76 391.121 162.117C390.391 162.474 389.522 162.652 388.515 162.652C386.486 162.652 384.944 162.011 383.888 160.729C382.833 159.446 382.305 157.676 382.305 155.42C382.305 153.796 382.557 152.359 383.06 151.109C383.564 149.859 384.278 148.812 385.203 147.967C386.145 147.107 387.273 146.458 388.589 146.019C389.92 145.565 391.414 145.329 393.07 145.313C393.102 145.816 393.134 146.311 393.167 146.799C393.199 147.269 393.232 147.765 393.264 148.284C392.436 148.3 391.657 148.381 390.926 148.528C390.212 148.657 389.555 148.869 388.954 149.161C388.369 149.453 387.858 149.835 387.42 150.305C386.981 150.76 386.64 151.32 386.397 151.986C386.754 151.823 387.119 151.71 387.493 151.645C387.866 151.58 388.215 151.547 388.54 151.547ZM404.719 149.77C404.719 151.296 404.329 152.465 403.55 153.276C402.771 154.088 401.724 154.494 400.409 154.494C399.094 154.494 398.046 154.088 397.267 153.276C396.488 152.465 396.098 151.296 396.098 149.77C396.098 148.243 396.488 147.075 397.267 146.263C398.046 145.451 399.094 145.045 400.409 145.045C401.724 145.045 402.771 145.451 403.55 146.263C404.329 147.075 404.719 148.243 404.719 149.77ZM401.967 149.77C401.967 148.942 401.821 148.341 401.529 147.967C401.237 147.594 400.863 147.407 400.409 147.407C399.938 147.407 399.556 147.594 399.264 147.967C398.988 148.341 398.85 148.942 398.85 149.77C398.85 150.598 398.988 151.206 399.264 151.596C399.556 151.97 399.938 152.156 400.409 152.156C400.863 152.156 401.237 151.97 401.529 151.596C401.821 151.206 401.967 150.598 401.967 149.77ZM409.468 145.435H412.853L403.331 162.312H399.946L409.468 145.435ZM416.75 157.977C416.75 159.503 416.36 160.672 415.581 161.484C414.801 162.295 413.754 162.701 412.439 162.701C411.124 162.701 410.077 162.295 409.298 161.484C408.518 160.672 408.129 159.503 408.129 157.977C408.129 156.451 408.518 155.282 409.298 154.47C410.077 153.658 411.124 153.252 412.439 153.252C413.754 153.252 414.801 153.658 415.581 154.47C416.36 155.282 416.75 156.451 416.75 157.977ZM413.998 157.977C413.998 157.149 413.852 156.548 413.559 156.175C413.267 155.801 412.894 155.614 412.439 155.614C411.968 155.614 411.587 155.801 411.294 156.175C411.018 156.548 410.88 157.149 410.88 157.977C410.88 158.805 411.018 159.413 411.294 159.803C411.587 160.177 411.968 160.363 412.439 160.363C412.894 160.363 413.267 160.177 413.559 159.803C413.852 159.413 413.998 158.805 413.998 157.977Z" fill="white"/>
<path d="M354.071 355.652C354.071 356.269 353.95 356.862 353.706 357.43C353.463 357.998 353.146 358.55 352.756 359.086C352.367 359.606 351.928 360.109 351.441 360.596C350.954 361.083 350.475 361.546 350.004 361.984C349.761 362.211 349.493 362.471 349.201 362.763C348.925 363.039 348.657 363.323 348.397 363.616C348.137 363.908 347.902 364.184 347.691 364.444C347.496 364.687 347.374 364.89 347.326 365.053H354.583V368.097H343.332C343.299 367.918 343.283 367.691 343.283 367.415C343.283 367.139 343.283 366.944 343.283 366.83C343.283 366.051 343.405 365.337 343.648 364.687C343.908 364.038 344.241 363.437 344.647 362.885C345.053 362.317 345.507 361.789 346.01 361.302C346.53 360.815 347.041 360.328 347.545 359.841C347.934 359.468 348.3 359.118 348.641 358.794C348.982 358.453 349.282 358.128 349.542 357.82C349.801 357.495 350.004 357.178 350.151 356.87C350.297 356.545 350.37 356.22 350.37 355.896C350.37 355.181 350.167 354.678 349.761 354.386C349.355 354.094 348.852 353.947 348.251 353.947C347.813 353.947 347.399 354.021 347.009 354.167C346.636 354.297 346.286 354.459 345.962 354.654C345.653 354.832 345.385 355.019 345.158 355.214C344.931 355.392 344.76 355.539 344.647 355.652L342.845 353.119C343.559 352.454 344.387 351.91 345.329 351.488C346.286 351.049 347.309 350.83 348.397 350.83C349.387 350.83 350.24 350.944 350.954 351.171C351.669 351.399 352.253 351.723 352.708 352.145C353.178 352.551 353.519 353.055 353.73 353.655C353.958 354.24 354.071 354.905 354.071 355.652ZM362.506 360.158C362.149 360.158 361.768 360.19 361.362 360.255C360.956 360.32 360.639 360.409 360.412 360.523C360.412 360.588 360.404 360.685 360.388 360.815C360.388 360.945 360.388 361.059 360.388 361.156C360.388 361.74 360.428 362.293 360.509 362.812C360.591 363.332 360.729 363.786 360.923 364.176C361.118 364.565 361.378 364.874 361.703 365.101C362.027 365.312 362.433 365.418 362.92 365.418C363.326 365.418 363.667 365.337 363.943 365.174C364.235 364.996 364.471 364.777 364.649 364.517C364.844 364.257 364.982 363.973 365.063 363.664C365.161 363.34 365.21 363.031 365.21 362.739C365.21 361.911 364.998 361.278 364.576 360.839C364.17 360.385 363.48 360.158 362.506 360.158ZM362.969 357.333C364.024 357.333 364.917 357.479 365.648 357.771C366.395 358.047 367.004 358.428 367.474 358.916C367.945 359.403 368.286 359.971 368.497 360.62C368.708 361.27 368.814 361.96 368.814 362.69C368.814 363.34 368.692 364.005 368.449 364.687C368.221 365.369 367.864 365.986 367.377 366.538C366.906 367.09 366.297 367.545 365.55 367.902C364.82 368.259 363.951 368.438 362.945 368.438C360.915 368.438 359.373 367.796 358.318 366.514C357.262 365.231 356.735 363.461 356.735 361.205C356.735 359.581 356.986 358.144 357.49 356.894C357.993 355.644 358.707 354.597 359.633 353.753C360.574 352.892 361.703 352.243 363.018 351.804C364.349 351.35 365.843 351.114 367.499 351.098C367.531 351.601 367.564 352.097 367.596 352.584C367.629 353.055 367.661 353.55 367.694 354.069C366.866 354.085 366.086 354.167 365.356 354.313C364.641 354.443 363.984 354.654 363.383 354.946C362.799 355.238 362.287 355.62 361.849 356.091C361.41 356.545 361.069 357.105 360.826 357.771C361.183 357.609 361.548 357.495 361.922 357.43C362.295 357.365 362.644 357.333 362.969 357.333ZM379.148 355.555C379.148 357.081 378.759 358.25 377.979 359.062C377.2 359.873 376.153 360.279 374.838 360.279C373.523 360.279 372.476 359.873 371.696 359.062C370.917 358.25 370.527 357.081 370.527 355.555C370.527 354.029 370.917 352.86 371.696 352.048C372.476 351.236 373.523 350.83 374.838 350.83C376.153 350.83 377.2 351.236 377.979 352.048C378.759 352.86 379.148 354.029 379.148 355.555ZM376.396 355.555C376.396 354.727 376.25 354.126 375.958 353.753C375.666 353.379 375.292 353.193 374.838 353.193C374.367 353.193 373.985 353.379 373.693 353.753C373.417 354.126 373.279 354.727 373.279 355.555C373.279 356.383 373.417 356.992 373.693 357.381C373.985 357.755 374.367 357.941 374.838 357.941C375.292 357.941 375.666 357.755 375.958 357.381C376.25 356.992 376.396 356.383 376.396 355.555ZM383.897 351.22H387.282L377.76 368.097H374.375L383.897 351.22ZM391.179 363.762C391.179 365.288 390.789 366.457 390.01 367.269C389.231 368.08 388.183 368.486 386.868 368.486C385.553 368.486 384.506 368.08 383.727 367.269C382.947 366.457 382.558 365.288 382.558 363.762C382.558 362.236 382.947 361.067 383.727 360.255C384.506 359.443 385.553 359.037 386.868 359.037C388.183 359.037 389.231 359.443 390.01 360.255C390.789 361.067 391.179 362.236 391.179 363.762ZM388.427 363.762C388.427 362.934 388.281 362.333 387.989 361.96C387.696 361.586 387.323 361.4 386.868 361.4C386.397 361.4 386.016 361.586 385.724 361.96C385.448 362.333 385.31 362.934 385.31 363.762C385.31 364.59 385.448 365.199 385.724 365.588C386.016 365.962 386.397 366.148 386.868 366.148C387.323 366.148 387.696 365.962 387.989 365.588C388.281 365.199 388.427 364.59 388.427 363.762Z" fill="white"/>
<path d="M80.8767 362.373C80.4384 362.373 79.9757 362.341 79.4886 362.276C79.0016 362.227 78.5307 362.154 78.0761 362.057C77.6215 361.959 77.2075 361.854 76.8341 361.74C76.4607 361.626 76.1685 361.521 75.9574 361.423L76.6636 358.404C77.0858 358.582 77.6215 358.777 78.271 358.988C78.9366 359.183 79.7565 359.28 80.7306 359.28C81.8509 359.28 82.6708 359.069 83.1903 358.647C83.7098 358.225 83.9696 357.657 83.9696 356.942C83.9696 356.504 83.8722 356.139 83.6774 355.846C83.4988 355.538 83.2471 355.294 82.9224 355.116C82.5977 354.921 82.2081 354.791 81.7535 354.726C81.3151 354.645 80.8443 354.604 80.341 354.604H78.9285V351.682H80.5358C80.893 351.682 81.2339 351.65 81.5586 351.585C81.8996 351.52 82.1999 351.414 82.4597 351.268C82.7195 351.106 82.9224 350.895 83.0685 350.635C83.2309 350.359 83.3121 350.018 83.3121 349.612C83.3121 349.304 83.2471 349.036 83.1172 348.808C82.9874 348.581 82.8169 348.394 82.6058 348.248C82.411 348.102 82.1756 347.997 81.8996 347.932C81.6398 347.85 81.3719 347.81 81.0959 347.81C80.3978 347.81 79.7484 347.915 79.1477 348.126C78.5632 348.338 78.0274 348.597 77.5404 348.906L76.2496 346.251C76.5094 346.089 76.8098 345.918 77.1507 345.74C77.5079 345.561 77.8975 345.399 78.3197 345.253C78.7418 345.107 79.1883 344.985 79.6591 344.888C80.1462 344.79 80.6576 344.741 81.1933 344.741C82.1837 344.741 83.0361 344.863 83.7504 345.107C84.481 345.334 85.0817 345.667 85.5526 346.105C86.0234 346.527 86.3725 347.031 86.5997 347.615C86.827 348.183 86.9407 348.808 86.9407 349.49C86.9407 350.156 86.754 350.805 86.3806 351.439C86.0072 352.055 85.5039 352.526 84.8707 352.851C85.7474 353.208 86.4212 353.744 86.892 354.458C87.3791 355.156 87.6226 356.001 87.6226 356.991C87.6226 357.77 87.4927 358.493 87.2329 359.158C86.9732 359.808 86.5673 360.376 86.0153 360.863C85.4633 361.334 84.757 361.707 83.8965 361.983C83.0523 362.243 82.0457 362.373 80.8767 362.373ZM90.8703 348.638C91.3411 348.443 91.8282 348.224 92.3315 347.98C92.851 347.721 93.3543 347.445 93.8414 347.152C94.3285 346.844 94.7912 346.527 95.2295 346.203C95.6841 345.862 96.09 345.504 96.4472 345.131H98.9799V362.008H95.3513V349.856C94.8642 350.18 94.3203 350.481 93.7196 350.757C93.1189 351.016 92.5344 351.244 91.9662 351.439L90.8703 348.638ZM112.48 349.466C112.48 350.992 112.091 352.161 111.311 352.973C110.532 353.785 109.485 354.19 108.17 354.19C106.855 354.19 105.808 353.785 105.028 352.973C104.249 352.161 103.859 350.992 103.859 349.466C103.859 347.94 104.249 346.771 105.028 345.959C105.808 345.147 106.855 344.741 108.17 344.741C109.485 344.741 110.532 345.147 111.311 345.959C112.091 346.771 112.48 347.94 112.48 349.466ZM109.728 349.466C109.728 348.638 109.582 348.037 109.29 347.664C108.998 347.29 108.624 347.104 108.17 347.104C107.699 347.104 107.317 347.29 107.025 347.664C106.749 348.037 106.611 348.638 106.611 349.466C106.611 350.294 106.749 350.903 107.025 351.292C107.317 351.666 107.699 351.853 108.17 351.853C108.624 351.853 108.998 351.666 109.29 351.292C109.582 350.903 109.728 350.294 109.728 349.466ZM117.229 345.131H120.614L111.092 362.008H107.707L117.229 345.131ZM124.511 357.673C124.511 359.199 124.121 360.368 123.342 361.18C122.563 361.992 121.515 362.397 120.2 362.397C118.885 362.397 117.838 361.992 117.059 361.18C116.279 360.368 115.89 359.199 115.89 357.673C115.89 356.147 116.279 354.978 117.059 354.166C117.838 353.354 118.885 352.948 120.2 352.948C121.515 352.948 122.563 353.354 123.342 354.166C124.121 354.978 124.511 356.147 124.511 357.673ZM121.759 357.673C121.759 356.845 121.613 356.244 121.321 355.871C121.028 355.497 120.655 355.311 120.2 355.311C119.729 355.311 119.348 355.497 119.056 355.871C118.78 356.244 118.642 356.845 118.642 357.673C118.642 358.501 118.78 359.11 119.056 359.499C119.348 359.873 119.729 360.06 120.2 360.06C120.655 360.06 121.028 359.873 121.321 359.499C121.613 359.11 121.759 358.501 121.759 357.673Z" fill="white"/>
<path d="M228.438 199.741L220.093 209.581C219.952 209.747 219.875 209.958 219.875 210.176C219.874 210.394 219.952 210.605 220.092 210.772C220.233 210.938 220.429 211.05 220.644 211.086C220.859 211.122 221.079 211.081 221.267 210.969L224.463 209.073C224.662 208.954 224.898 208.915 225.125 208.962C225.352 209.01 225.552 209.142 225.686 209.33L228.379 213.124C228.465 213.244 228.577 213.342 228.708 213.41C228.839 213.477 228.984 213.512 229.131 213.512C229.279 213.512 229.424 213.477 229.555 213.41C229.686 213.342 229.798 213.244 229.883 213.124L232.577 209.33C232.711 209.142 232.911 209.01 233.138 208.962C233.365 208.915 233.601 208.954 233.8 209.073L236.996 210.969C237.183 211.081 237.404 211.122 237.619 211.086C237.834 211.05 238.03 210.938 238.17 210.772C238.311 210.605 238.388 210.394 238.388 210.176C238.388 209.958 238.311 209.747 238.17 209.581L229.825 199.741C229.738 199.642 229.632 199.563 229.512 199.508C229.393 199.454 229.263 199.426 229.131 199.426C229 199.426 228.87 199.454 228.751 199.508C228.631 199.563 228.525 199.642 228.438 199.741Z" fill="white"/>
<path d="M278.438 202.684C278.073 202.242 277.618 201.887 277.105 201.643C276.591 201.399 276.032 201.273 275.467 201.273C274.901 201.273 274.342 201.399 273.829 201.643C273.316 201.887 272.861 202.242 272.495 202.684L263.304 213.815L261.4 216.111C261.176 216.382 260.897 216.599 260.582 216.749C260.268 216.898 259.925 216.975 259.579 216.975C259.232 216.975 258.889 216.898 258.575 216.749C258.26 216.599 257.981 216.382 257.757 216.111L231.908 184.839C231.436 184.269 230.849 183.81 230.187 183.496C229.525 183.181 228.803 183.019 228.074 183.019C227.344 183.019 226.623 183.181 225.961 183.496C225.299 183.81 224.711 184.269 224.24 184.839L175.737 243.524C175.443 243.88 175.254 244.315 175.194 244.777C175.133 245.239 175.202 245.709 175.394 246.132C175.586 246.555 175.891 246.913 176.275 247.164C176.658 247.415 177.104 247.549 177.559 247.549H212.569C213.024 247.549 213.47 247.415 213.853 247.164C214.237 246.913 214.542 246.555 214.734 246.132C214.926 245.709 214.995 245.239 214.934 244.777C214.873 244.315 214.685 243.88 214.391 243.524L207.559 235.244C207.249 234.867 206.834 234.596 206.37 234.465C205.906 234.335 205.415 234.351 204.96 234.512L196.788 237.4C194.493 238.209 192.618 235.404 194.186 233.507L200.148 226.294L203.592 222.146L226.26 194.686C226.484 194.414 226.763 194.196 227.078 194.047C227.392 193.897 227.735 193.82 228.082 193.82C228.429 193.82 228.772 193.897 229.086 194.047C229.401 194.196 229.68 194.414 229.904 194.686L252.596 222.146L254.507 224.452L256.038 226.294L258.176 228.87L258.348 229.084L261.998 233.502C263.566 235.393 261.69 238.204 259.395 237.392L258.915 237.222L253.257 235.232L252.993 235.134L252.048 234.805L251.226 234.516C250.772 234.355 250.281 234.34 249.817 234.47C249.354 234.601 248.939 234.872 248.629 235.247L241.778 243.53C241.484 243.885 241.295 244.32 241.233 244.782C241.172 245.244 241.241 245.715 241.433 246.138C241.624 246.561 241.93 246.92 242.314 247.171C242.698 247.422 243.144 247.555 243.599 247.555H278.625C279.08 247.554 279.526 247.421 279.91 247.17C280.293 246.919 280.599 246.561 280.79 246.138C280.982 245.715 281.051 245.245 280.991 244.783C280.93 244.32 280.741 243.886 280.447 243.53L279.524 242.395L267.096 227.359L263.416 222.939L263.246 222.725L266.954 218.231L273.643 210.128C273.868 209.857 274.147 209.639 274.461 209.49C274.776 209.34 275.119 209.263 275.466 209.263C275.813 209.263 276.155 209.34 276.47 209.49C276.785 209.639 277.064 209.857 277.288 210.128L293.097 229.275L295.575 232.259L300.582 238.323C300.876 238.678 301.064 239.113 301.125 239.574C301.186 240.036 301.117 240.506 300.926 240.929C300.735 241.351 300.431 241.709 300.048 241.961C299.665 242.212 299.22 242.346 298.765 242.348L292.063 242.363C291.608 242.364 291.163 242.498 290.78 242.749C290.398 243.001 290.093 243.359 289.902 243.782C289.711 244.205 289.642 244.675 289.703 245.136C289.764 245.598 289.952 246.032 290.246 246.388L290.49 246.683C290.714 246.954 290.993 247.171 291.308 247.321C291.623 247.47 291.965 247.547 292.312 247.547H310.381C310.836 247.547 311.282 247.413 311.666 247.163C312.049 246.912 312.355 246.553 312.546 246.13C312.738 245.707 312.807 245.237 312.747 244.775C312.686 244.313 312.497 243.878 312.203 243.522L278.438 202.684Z" fill="white"/>
<path d="M163.218 281.713L176.559 265.463H163.526V262.399H180.58V265.055L167.581 281.305H180.643V284.37H163.218V281.713Z" fill="white"/>
<path d="M197.236 284.685C196.057 284.701 194.887 284.474 193.8 284.019C192.801 283.602 191.898 282.986 191.144 282.21C190.408 281.444 189.828 280.542 189.437 279.555C189.032 278.528 188.827 277.434 188.834 276.33C188.829 275.223 189.033 274.125 189.437 273.095C189.827 272.095 190.406 271.18 191.144 270.401C191.895 269.617 192.798 268.995 193.8 268.575C194.898 268.12 196.078 267.894 197.267 267.911C198.44 267.895 199.603 268.126 200.681 268.59C201.662 269.017 202.551 269.633 203.296 270.401C204.02 271.158 204.583 272.054 204.952 273.034C205.333 274.037 205.526 275.102 205.521 276.175C205.521 276.423 205.511 276.655 205.491 276.871C205.47 277.087 205.449 277.269 205.428 277.413H192.468C192.518 278.089 192.692 278.75 192.98 279.363C193.246 279.926 193.612 280.436 194.061 280.867C194.5 281.286 195.015 281.617 195.579 281.842C196.145 282.068 196.75 282.183 197.36 282.181C197.814 282.181 198.266 282.124 198.706 282.011C199.135 281.905 199.546 281.738 199.928 281.516C200.295 281.302 200.629 281.037 200.92 280.727C201.201 280.426 201.432 280.08 201.6 279.704L204.51 280.541C203.915 281.796 202.947 282.837 201.739 283.522C200.449 284.297 198.948 284.685 197.236 284.685ZM202.156 275.06C202.103 274.402 201.93 273.759 201.646 273.163C201.386 272.61 201.024 272.111 200.578 271.693C200.137 271.284 199.622 270.962 199.061 270.745C198.48 270.517 197.86 270.402 197.236 270.405C196.009 270.397 194.824 270.856 193.923 271.689C193.48 272.106 193.122 272.605 192.87 273.159C192.597 273.758 192.429 274.4 192.375 275.056L202.156 275.06Z" fill="white"/>
<path d="M228.994 284.376H225.589V275.306C225.589 273.779 225.341 272.67 224.846 271.98C224.35 271.289 223.638 270.943 222.71 270.942C222.197 270.946 221.688 271.04 221.208 271.221C220.7 271.409 220.226 271.675 219.801 272.01C219.36 272.357 218.97 272.763 218.64 273.216C218.298 273.682 218.031 274.199 217.851 274.749V284.376H214.437V268.186H217.532V271.437C218.162 270.334 219.098 269.436 220.226 268.852C221.427 268.216 222.768 267.89 224.127 267.904C225.096 267.904 225.895 268.079 226.524 268.429C227.14 268.766 227.654 269.263 228.011 269.867C228.387 270.518 228.644 271.231 228.77 271.972C228.917 272.805 228.99 273.649 228.986 274.495L228.994 284.376Z" fill="white"/>
<path d="M239.519 284.376V262.4H248.742C249.691 262.39 250.628 262.601 251.481 263.018C252.297 263.416 253.028 263.968 253.633 264.643C254.234 265.318 254.711 266.094 255.041 266.935C255.377 267.766 255.55 268.654 255.551 269.55C255.554 270.464 255.391 271.37 255.071 272.226C254.763 273.064 254.307 273.84 253.726 274.517C253.146 275.189 252.437 275.737 251.64 276.128C250.796 276.536 249.869 276.743 248.932 276.731H242.984V284.376H239.519ZM242.984 273.66H248.712C249.179 273.667 249.641 273.561 250.058 273.351C250.463 273.142 250.817 272.846 251.094 272.484C251.394 272.093 251.624 271.654 251.775 271.185C251.945 270.655 252.029 270.101 252.023 269.544C252.031 268.975 251.937 268.408 251.744 267.872C251.571 267.398 251.308 266.962 250.971 266.588C250.651 266.236 250.264 265.951 249.833 265.751C249.421 265.558 248.973 265.458 248.518 265.457H242.984V273.66Z" fill="white"/>
<path d="M271.833 284.685C270.654 284.701 269.485 284.474 268.397 284.019C267.398 283.602 266.495 282.986 265.741 282.21C265.005 281.444 264.425 280.542 264.034 279.554C263.629 278.528 263.424 277.434 263.431 276.33C263.43 275.221 263.639 274.122 264.048 273.091C264.437 272.091 265.017 271.176 265.755 270.397C266.505 269.613 267.409 268.991 268.41 268.571C269.508 268.116 270.688 267.89 271.877 267.907C273.05 267.891 274.213 268.122 275.291 268.586C276.273 269.013 277.161 269.629 277.907 270.397C278.631 271.154 279.195 272.05 279.564 273.03C279.945 274.033 280.138 275.098 280.133 276.171C280.133 276.419 280.122 276.651 280.101 276.867C280.08 277.083 280.059 277.265 280.038 277.409H267.069C267.119 278.085 267.293 278.746 267.581 279.359C267.847 279.922 268.214 280.431 268.664 280.861C269.103 281.281 269.618 281.612 270.181 281.836C270.748 282.062 271.353 282.177 271.962 282.176C272.417 282.176 272.869 282.118 273.309 282.005C273.738 281.899 274.15 281.732 274.532 281.51C274.899 281.296 275.232 281.03 275.522 280.721C275.805 280.421 276.035 280.075 276.203 279.699L279.113 280.535C278.519 281.792 277.551 282.836 276.342 283.522C275.048 284.297 273.546 284.685 271.833 284.685ZM276.753 275.059C276.7 274.401 276.528 273.759 276.243 273.163C275.983 272.61 275.621 272.111 275.175 271.693C274.734 271.284 274.219 270.962 273.658 270.745C273.076 270.517 272.456 270.402 271.832 270.405C270.604 270.397 269.42 270.856 268.518 271.689C268.075 272.105 267.718 272.605 267.467 273.159C267.193 273.757 267.024 274.399 266.97 275.056L276.753 275.059Z" fill="white"/>
<path d="M293.406 284.685C292.662 284.695 291.922 284.566 291.225 284.306C290.583 284.066 289.994 283.703 289.491 283.238C289.008 282.783 288.621 282.235 288.353 281.628C288.072 280.995 287.929 280.31 287.936 279.617C287.926 278.895 288.096 278.182 288.431 277.542C288.775 276.908 289.257 276.359 289.842 275.936C290.495 275.458 291.229 275.102 292.008 274.883C292.909 274.624 293.842 274.496 294.779 274.504C295.537 274.503 296.293 274.57 297.038 274.705C297.724 274.824 298.397 275.005 299.05 275.245V274.132C299.05 272.936 298.71 272.002 298.028 271.331C297.347 270.659 296.367 270.324 295.088 270.326C294.215 270.327 293.349 270.489 292.533 270.804C291.623 271.164 290.756 271.626 289.95 272.182L288.898 270.015C290.981 268.611 293.148 267.91 295.397 267.911C297.627 267.911 299.36 268.48 300.598 269.618C301.836 270.756 302.455 272.387 302.455 274.51V280.359C302.455 280.751 302.527 281.03 302.671 281.195C302.77 281.288 302.887 281.361 303.015 281.409C303.143 281.457 303.278 281.479 303.415 281.474V284.384C303.112 284.441 302.807 284.482 302.5 284.507C302.223 284.528 301.969 284.537 301.742 284.537C301.08 284.495 300.581 284.321 300.24 284.012C299.89 283.685 299.666 283.247 299.606 282.773L299.513 281.753C298.81 282.686 297.891 283.434 296.835 283.934C295.763 284.44 294.591 284.697 293.406 284.685ZM294.335 282.178C295.136 282.182 295.93 282.03 296.672 281.73C297.347 281.473 297.94 281.039 298.39 280.475C298.824 280.105 299.041 279.713 299.041 279.299V277.163C298.445 276.931 297.828 276.755 297.199 276.638C296.574 276.515 295.939 276.451 295.303 276.448C294.085 276.448 293.089 276.711 292.315 277.237C291.542 277.763 291.155 278.458 291.155 279.323C291.148 279.706 291.225 280.086 291.381 280.436C291.536 280.786 291.766 281.098 292.054 281.351C292.679 281.91 293.497 282.206 294.335 282.178Z" fill="white"/>
<path d="M324.05 284.376L318.882 276.916L316.188 279.454V284.385H312.774V261.779H316.188V276.11L323.648 268.218H327.331L321.072 274.997L327.695 284.376H324.05Z" fill="white"/>
<path d="M188.431 301.104C188.432 300.327 188.572 299.557 188.842 298.828C189.109 298.084 189.511 297.394 190.028 296.795C190.555 296.187 191.2 295.693 191.924 295.342C192.719 294.964 193.591 294.775 194.471 294.79C195.496 294.76 196.507 295.024 197.387 295.549C198.172 296.028 198.806 296.721 199.213 297.546L197.645 298.597C197.495 298.242 197.284 297.917 197.021 297.635C196.786 297.385 196.513 297.174 196.211 297.011C195.928 296.859 195.624 296.748 195.31 296.681C195.011 296.616 194.707 296.583 194.401 296.583C193.808 296.571 193.221 296.708 192.694 296.983C192.21 297.244 191.787 297.606 191.456 298.045C191.121 298.49 190.867 298.991 190.707 299.524C190.544 300.055 190.46 300.608 190.458 301.163C190.455 301.764 190.554 302.361 190.752 302.929C190.937 303.468 191.218 303.969 191.581 304.408C191.931 304.83 192.361 305.178 192.846 305.432C193.342 305.689 193.893 305.819 194.451 305.812C194.766 305.816 195.081 305.783 195.389 305.713C195.716 305.635 196.029 305.507 196.317 305.334C196.616 305.155 196.889 304.936 197.129 304.683C197.388 304.404 197.599 304.084 197.753 303.735L199.41 304.683C199.211 305.152 198.923 305.579 198.562 305.939C198.202 306.302 197.79 306.611 197.341 306.857C196.433 307.352 195.416 307.613 194.382 307.616C193.546 307.626 192.72 307.43 191.977 307.047C191.262 306.674 190.623 306.169 190.096 305.558C189.031 304.313 188.44 302.731 188.429 301.093L188.431 301.104Z" fill="white"/>
<path d="M206.932 307.521L212.03 294.864H213.671L218.75 307.521H216.632L215.277 304.08H210.392L209.064 307.521H206.932ZM212.852 297.089L210.748 302.589H214.883L212.852 297.089Z" fill="white"/>
<path d="M227.414 307.521V294.864H232.725C233.271 294.859 233.811 294.981 234.303 295.221C234.772 295.45 235.193 295.769 235.541 296.158C235.888 296.549 236.163 296.999 236.353 297.486C236.546 297.964 236.646 298.475 236.647 298.992C236.648 299.518 236.554 300.04 236.37 300.533C236.193 301.019 235.93 301.469 235.594 301.861C235.26 302.248 234.851 302.563 234.392 302.787C233.906 303.023 233.373 303.143 232.833 303.136H229.419V307.538L227.414 307.521ZM229.409 301.351H232.708C232.977 301.355 233.243 301.294 233.483 301.173C233.717 301.053 233.92 300.883 234.079 300.674C234.253 300.446 234.386 300.189 234.471 299.915C234.57 299.609 234.618 299.289 234.614 298.967C234.619 298.639 234.565 298.314 234.454 298.005C234.354 297.733 234.203 297.482 234.009 297.266C233.826 297.063 233.605 296.899 233.358 296.784C233.121 296.673 232.862 296.615 232.599 296.615H229.409V301.351Z" fill="white"/>
<path d="M245.612 307.521V294.884H247.608V307.521H245.612Z" fill="white"/>
<path d="M266.876 296.63H262.671V307.521H260.674V296.63H256.45V294.864H266.881L266.876 296.63Z" fill="white"/>
<path d="M273.222 307.521L278.32 294.864H279.96L285.04 307.521H282.919L281.563 304.08H276.679L275.361 307.521H273.222ZM279.139 297.089L277.036 302.589H281.172L279.139 297.089Z" fill="white"/>
<path d="M293.702 307.521V294.864H295.699V305.757H302.491V307.521H293.702Z" fill="white"/>
</svg>
